<svg xmlns="http://www.w3.org/2000/svg" width="492" height="400" viewBox="0 0 492 400"><title>HumemAI</title><g transform="translate(96.0,0) scale(0.6)"><g transform="translate(15,15) scale(0.9)" fill="none" stroke="#892122" stroke-linecap="round" stroke-linejoin="round"><path stroke-width="32" d="M288.8,0.457C178.31-6.342,85.278,63.166,87.382,176.416l-0.084,10.25l-48.003,84.767c-2.582,4.567-2.812,10.097-0.613,14.876c2.181,4.78,6.535,8.213,11.682,9.218l29.666,8.188l9.312,89.896c0.256,8.656,4.107,16.802,10.634,22.51c6.535,5.674,15.166,8.376,23.771,7.412l23.694,1.892c4.618-0.519,9.254,0.954,12.712,4.056c3.468,3.11,5.445,7.548,5.445,12.2V512h200.419c0,0,0-33.936,0-47.602c0-13.666,4.712-44.909,13.675-59.206c32.488-51.948,85.381-79.587,94.301-186.14C482.914,112.515,419.328,8.5,288.8,0.457z"/><g transform="translate(90,70)" stroke-width="24"><line x1="72.4" y1="61.2" x2="127.6" y2="88.8"/><line x1="172.4" y1="88.8" x2="227.6" y2="61.2"/><line x1="161.2" y1="122.4" x2="188.8" y2="177.6"/><line x1="266.7" y1="68.6" x2="323.3" y2="131.4"/><line x1="223.5" y1="191.6" x2="316.5" y2="158.4"/><circle cx="50" cy="50" r="25"/><circle cx="150" cy="100" r="25"/><circle cx="250" cy="50" r="25"/><circle cx="200" cy="200" r="25"/><circle cx="340" cy="150" r="25"/></g></g></g><path fill="#892122" d="M5.22 396.31V326H22.84V353.99H51.24V326H68.86V396.31H51.24V368.97H22.84V396.31ZM96.49 397.64Q90.21 397.64 86.31 394.73Q82.41 391.81 80.63 386.75Q78.86 381.69 78.86 375.28V343.58H95.96V373.15Q95.96 379.48 98.06 382.23Q100.16 384.97 104.09 384.97Q106.06 384.97 108.11 383.93Q110.15 382.89 111.56 380.12Q112.97 377.34 112.97 372.17V343.58H130.08V396.31H113.46V383.95L113.84 386.14Q111.33 391.71 107 394.67Q102.66 397.64 96.49 397.64ZM140.33 396.31V343.58H156.95V351.84Q159.46 347.05 163.45 344.65Q167.44 342.25 172.73 342.25Q178.34 342.25 182.11 344.92Q185.88 347.58 187.7 352.77Q190.85 347.05 195.36 344.65Q199.87 342.25 204.71 342.25Q212.86 342.25 217.07 347.96Q221.27 353.66 221.27 364.57V396.31H204.17V364.09Q204.17 361.71 203.7 359.63Q203.23 357.56 201.95 356.24Q200.67 354.92 198.16 354.92Q195.08 354.92 193.13 357.08Q191.18 359.23 190.27 362.87Q189.36 366.5 189.36 370.99V396.31H172.25V364.09Q172.25 361.71 171.78 359.61Q171.32 357.52 170.02 356.22Q168.73 354.92 166.27 354.92Q163.18 354.92 161.23 357.05Q159.27 359.18 158.36 362.84Q157.44 366.49 157.44 371.03V396.31ZM256.32 397.64Q248.5 397.64 242.05 394.25Q235.59 390.86 231.73 384.63Q227.87 378.39 227.87 369.84Q227.87 361.39 231.64 355.21Q235.4 349.03 241.84 345.64Q248.27 342.25 256.33 342.25Q260.76 342.25 265.33 343.58Q269.9 344.9 273.75 348.27Q277.61 351.65 279.96 357.71Q282.32 363.77 282.32 373.24H238.86V364.3H267.01L265.78 366.68Q265.35 362.09 263.98 359.25Q262.61 356.42 260.52 355.11Q258.44 353.81 255.84 353.81Q252.27 353.81 250.02 355.92Q247.76 358.03 246.68 361.67Q245.61 365.31 245.61 369.93Q245.61 376.91 248.12 381.11Q250.63 385.31 256.17 385.31Q259.61 385.31 262.16 383.53Q264.7 381.75 266.14 377.9L281.37 381.51Q279.51 387.29 275.53 390.85Q271.55 394.4 266.49 396.02Q261.43 397.64 256.32 397.64ZM289.75 396.31V343.58H306.37V351.84Q308.88 347.05 312.87 344.65Q316.86 342.25 322.15 342.25Q327.76 342.25 331.53 344.92Q335.29 347.58 337.12 352.77Q340.26 347.05 344.78 344.65Q349.29 342.25 354.13 342.25Q362.28 342.25 366.48 347.96Q370.69 353.66 370.69 364.57V396.31H353.58V364.09Q353.58 361.71 353.12 359.63Q352.65 357.56 351.37 356.24Q350.09 354.92 347.58 354.92Q344.5 354.92 342.55 357.08Q340.59 359.23 339.68 362.87Q338.77 366.5 338.77 370.99V396.31H321.67V364.09Q321.67 361.71 321.2 359.61Q320.73 357.52 319.44 356.22Q318.15 354.92 315.68 354.92Q312.6 354.92 310.65 357.05Q308.69 359.18 307.77 362.84Q306.86 366.49 306.86 371.03V396.31ZM374.42 396.31 400.27 326H423.64L449.39 396.31H430.42L411.88 337.67L393.39 396.31ZM393.03 378.64V364.58H430.63V378.64ZM451.77 396.31V381.61H461.67V340.7H451.77V326H489.19V340.7H479.29V381.61H489.19V396.31Z"/></svg>
